{"title":"Lost S01E07 - AVM","uid":5033222,"size":137713206,"categoryP":"video","categoryS":"tv_shows","magnet":"?xt=urn:btih:a6d74251bfaf9cd692fc20d31380e73d813ec836&amp;dn=Lost+S01E07+-+AVM&amp;tr=udp%3A%2F%2Ftracker.openbittorrent.com%3A80&amp;tr=udp%3A%2F%2Fopen.demonii.com%3A1337&amp;tr=udp%3A%2F%2Ftracker.coppersurfer.tk%3A6969&amp;tr=udp%3A%2F%2Fexodus.desync.com%3A6969","seeders":1,"leechers":1,"uploader":"SysProfile","files":2,"time":1248988963,"description":"AVIDMobile - http://www.avidmobile.com.ar (Mobile media)\n\nVideo\nID : 1\nFormat : MPEG-4 Visual\nFormat profile : Simple@L1\nFormat settings, BVOP : No\nFormat settings, QPel : No\nFormat settings, GMC : No warppoints\nFormat settings, Matrix : Default (H.263)\nCodec ID : 20\nDuration : 43mn 17s\nBit rate mode : Variable\nBit rate : 486 Kbps\nMaximum bit rate : 3 468 Kbps\nWidth : 320 pixels\nHeight : 240 pixels\nDisplay aspect ratio : 4/3\nFrame rate mode : Variable\nFrame rate : 23.976 fps\nMinimum frame rate : 23.974 fps\nMaximum frame rate : 23.981 fps\nResolution : 24 bits\nColorimetry : 4:2:0\nScan type : Progressive\nBits/(Pixel*Frame) : 0.264\nStream size : 150 MiB (88%)\n\nAudio\nID : 2\nFormat : AAC\nFormat/Info : Advanced Audio Codec\nFormat version : Version 4\nFormat profile : LC\nFormat settings, SBR : No\nCodec ID : 40\nDuration : 43mn 17s\nBit rate mode : Variable\nBit rate : 66.15 Kbps\nMaximum bit rate : 152 Kbps\nChannel(s) : 2 channels\nChannel positions : L R\nSampling rate : 22.05 KHz\nResolution : 16 bits\nStream size : 20.3 MiB (12%)","torrent":{"xt":"urn:btih:a6d74251bfaf9cd692fc20d31380e73d813ec836","amp;dn":"Lost+S01E07+-+AVM","amp;tr":["udp%3A%2F%2Ftracker.openbittorrent.com%3A80","udp%3A%2F%2Fopen.demonii.com%3A1337","udp%3A%2F%2Ftracker.coppersurfer.tk%3A6969","udp%3A%2F%2Fexodus.desync.com%3A6969"],"infoHash":"a6d74251bfaf9cd692fc20d31380e73d813ec836","infoHashBuffer":{"type":"Buffer","data":[166,215,66,81,191,175,156,214,146,252,32,211,19,128,231,61,129,62,200,54]},"announce":[],"urlList":[]}}